<?xml version="1.0" encoding="UTF-8"?>
<svg version="1.1" xmlns="http://www.w3.org/2000/svg" width="489" height="480">
<path d="M0 0 C5.92909506 0.5861719 11.31580266 1.80404381 17 3.5625 C17.77472656 3.79646484 18.54945313 4.03042969 19.34765625 4.27148438 C21.2335214 4.84190038 23.1170209 5.42012803 25 6 C25.34675781 5.18789063 25.69351562 4.37578125 26.05078125 3.5390625 C28 1 28 1 31.23046875 0.3359375 C47.95203798 0.50100729 61.49784326 5.99514921 76 14 C76.68610352 14.37737305 77.37220703 14.75474609 78.07910156 15.14355469 C80.12733012 16.28423092 82.15991694 17.44806529 84.1875 18.625 C85.10511108 19.14658691 85.10511108 19.14658691 86.04125977 19.67871094 C90.28388704 22.21660031 92.90744378 25.19453336 96 29 C97.99563433 30.64097253 100.04037687 32.2236666 102.125 33.75 C106.68806968 37.16031492 111.08221022 40.6827971 115.3125 44.5 C116.21613281 45.3146875 117.11976563 46.129375 118.05078125 46.96875 C120 49 120 49 120 51 C120.99 51.33 121.98 51.66 123 52 C124.61328125 53.6015625 124.61328125 53.6015625 126.3125 55.625 C126.91835938 56.34171875 127.52421875 57.0584375 128.1484375 57.796875 C128.75945312 58.52390625 129.37046875 59.2509375 130 60 C130.59039062 60.66515625 131.18078125 61.3303125 131.7890625 62.015625 C132.33304687 62.62921875 132.87703125 63.2428125 133.4375 63.875 C133.93121094 64.42929688 134.42492187 64.98359375 134.93359375 65.5546875 C136 67 136 67 136 69 C136.66 69 137.32 69 138 69 C139.42041016 70.71240234 139.42041016 70.71240234 141.0390625 73.0859375 C141.61914062 73.93414062 142.19921875 74.78234375 142.796875 75.65625 C143.40015625 76.5534375 144.0034375 77.450625 144.625 78.375 C145.54152344 79.70917969 145.54152344 79.70917969 146.4765625 81.0703125 C151 87.73430525 151 87.73430525 151 90 C151.99 90.33 152.98 90.66 154 91 C157.38564677 95.41488339 159.56507616 100.15813884 161.75 105.25 C162.45005969 106.85957565 163.15059392 108.46894497 163.8515625 110.078125 C164.20637695 110.89603516 164.56119141 111.71394531 164.92675781 112.55664062 C165.95551204 114.89871803 167.01366036 117.22445006 168.0859375 119.546875 C174.88977328 134.34950868 181.1610956 149.87043052 182.875 166.1875 C183.73326366 173.77969112 185.10562347 181.23703263 186.59130859 188.72924805 C188.48810987 198.30379606 189.16526463 207.36163176 189.125 217.125 C189.12311676 217.81152649 189.12123352 218.49805298 189.11929321 219.2053833 C189.10261464 224.47052872 189.05797028 229.7351581 189 235 C188.9870993 236.18903931 188.9870993 236.18903931 188.97393799 237.40209961 C188.91742768 242.27056655 188.83844374 247.13808869 188.73553467 252.00579834 C188.70412367 253.55507474 188.67681343 255.10444111 188.65411377 256.65386963 C188.39517109 273.39439936 185.72266672 289.11289543 180.8125 305.125 C180.6168042 305.76954132 180.4211084 306.41408264 180.21948242 307.07815552 C177.09030015 317.32527924 173.41282871 326.75396186 168 336 C167.32950644 337.20504965 166.66025583 338.41079164 165.9921875 339.6171875 C154.46078478 360.00103474 139.48584868 381.39481398 118.375 392.5 C114.20238827 394.72244928 111.01284535 397.51985445 107.546875 400.7109375 C62.16295787 441.50077713 8.9311062 456.87143316 -50.89233398 456.0267334 C-52.88321932 456.00148123 -54.87423522 455.98721467 -56.86523438 455.97363281 C-83.25753521 455.76710914 -106.70272674 450.10755158 -130.44140625 438.62109375 C-134.33292916 436.74213956 -138.26073815 435.06306521 -142.28076172 433.47802734 C-163.49084638 425.08907151 -180.83884375 412.45148198 -197.11694336 396.55639648 C-200.92402239 392.8516154 -204.80506468 389.58264554 -209.09594727 386.4543457 C-212.11908802 384.1452228 -214.77535336 381.52267292 -217.4375 378.8125 C-217.99679199 378.24644043 -218.55608398 377.68038086 -219.13232422 377.09716797 C-256.73104894 338.56954629 -279.51192059 289.33220299 -279.4375 235.1875 C-279.32104837 225.90306999 -278.66325036 216.75077789 -277.50390625 207.54296875 C-276.79077187 201.66575786 -276.59793754 195.76044729 -276.42993164 189.84570312 C-276.26891645 185.44127637 -275.67570989 181.65801062 -274.48144531 177.39111328 C-273.84730792 174.24165 -273.73421565 171.14961164 -273.578125 167.94140625 C-273.12786372 160.04127841 -271.62589715 152.62867833 -269.75 144.9375 C-269.46253906 143.69162109 -269.17507813 142.44574219 -268.87890625 141.16210938 C-267.08305712 133.61405352 -264.79941558 126.42090312 -262.09838867 119.15063477 C-261.17488548 116.50164417 -260.48232636 113.99493628 -259.94140625 111.25 C-258.93908642 106.21401066 -256.99591871 101.68737501 -254.9375 97 C-254.54409424 96.09443359 -254.15068848 95.18886719 -253.74536133 94.25585938 C-251.0880593 88.23327452 -248.25084473 82.32634892 -245.1875 76.5 C-244.82712646 75.81292969 -244.46675293 75.12585938 -244.09545898 74.41796875 C-238.462379 63.98546804 -229.08747528 55.48676043 -218 51 C-216.68 51 -215.36 51 -214 51 C-212.2534386 59.1812613 -214.10505757 63.61430251 -218.0625 70.8125 C-218.56821533 71.77430176 -219.07393066 72.73610352 -219.5949707 73.72705078 C-220.59498695 75.62828456 -221.60313849 77.52526571 -222.62011719 79.41748047 C-224.37699751 82.70556965 -226.03787919 86.03192787 -227.6875 89.375 C-228.45833333 90.91666667 -229.22916667 92.45833333 -230 94 C-228.81205317 94.11339593 -228.81205317 94.11339593 -227.63647461 92.73413086 C-227.06421143 92.15026611 -226.49194824 91.56640137 -225.90234375 90.96484375 C-225.26981689 90.32385742 -224.63729004 89.68287109 -223.9855957 89.02246094 C-223.30972412 88.33442383 -222.63385254 87.64638672 -221.9375 86.9375 C-217.41381762 82.37197581 -212.90120716 77.87840307 -208.00390625 73.7109375 C-201.01746853 67.7459088 -194.36543225 61.55007322 -188.1875 54.75 C-178.88879306 44.54436325 -169.55068025 34.59220549 -158.5 26.25 C-157.85385742 25.76072021 -157.20771484 25.27144043 -156.54199219 24.76733398 C-149.46860601 19.6033225 -141.89297091 17.23307135 -133.5 15.0625 C-132.4982373 14.80162598 -131.49647461 14.54075195 -130.46435547 14.27197266 C-122.43537781 12.24060497 -114.3762531 10.72759874 -106.20483398 9.40087891 C-100.57664476 8.48040089 -95.08521589 7.35220566 -89.5625 5.9375 C-66.69437369 0.27375633 -43.10561676 -0.39073569 -19.77734375 2.28344727 C-13.49874196 3.00168518 -7.3215909 3.23127772 -1 3 C-0.67 2.01 -0.34 1.02 0 0 Z M29 11 C29.33 11.99 29.66 12.98 30 14 C30.66 13.67 31.32 13.34 32 13 C31.01 12.34 30.02 11.68 29 11 Z M-233 97 C-232 99 -232 99 -232 99 Z " fill="#111111" transform="translate(289,13)"/>
<path d="M0 0 C2.50164525 1.43734881 3.96305664 2.86369354 6 5 C6 5.99 6 6.98 6 8 C4.72125 7.79375 3.4425 7.5875 2.125 7.375 C-1.43359391 7.35251283 -2.7959871 7.8467676 -5.68359375 10.015625 C-10.03261814 14.33233866 -13.80836139 18.75659372 -17 24 C-17.9513617 25.23457053 -18.91042187 26.46322776 -19.875 27.6875 C-24.82713744 34.2193066 -28.42385082 41.64902669 -32 49 C-31.38125 48.505 -30.7625 48.01 -30.125 47.5 C-28 46 -28 46 -26 46 C-25.67 45.01 -25.34 44.02 -25 43 C-22.84765625 41.60546875 -22.84765625 41.60546875 -20.0625 40.1875 C-16.46666677 38.31858285 -13.01969136 36.39742566 -9.625 34.1875 C-2.0177185 29.55486062 6.39597087 26.40937205 14.60205078 23.00585938 C16.56760973 22.18137324 18.51852484 21.32205655 20.46484375 20.453125 C31.63250079 15.48972187 44.66585192 11.24090094 57 13 C57.99 13.66 58.98 14.32 60 15 C64.02424367 14.656467 67.20429076 13.53271476 70.875 11.9375 C80.7505246 8.45719426 91.6819471 9.67458834 102 10 C102 11.65 102 13.3 102 15 C102.60328125 15.12117187 103.2065625 15.24234375 103.828125 15.3671875 C105.02695312 15.61855469 105.02695312 15.61855469 106.25 15.875 C107.43335938 16.11863281 107.43335938 16.11863281 108.640625 16.3671875 C111 17 111 17 113.08984375 18.0625 C115.14157808 19.23004393 115.14157808 19.23004393 118.3125 19.125 C123.73734713 20.41225186 125.96952717 23.4692931 129 28 C134.31674231 37.1948367 134.22761496 47.02151527 131.625 57.125 C130.69803646 60.28042133 129.8516056 62.22259161 128 65 C127.01 65.33 126.02 65.66 125 66 C123.78130071 68.50447516 123.78130071 68.50447516 123 71 C122.34 71 121.68 71 121 71 C121 71.99 121 72.98 121 74 C115.65116279 79 115.65116279 79 113 79 C113 79.66 113 80.32 113 81 C111.68 81.33 110.36 81.66 109 82 C108.87625 82.598125 108.7525 83.19625 108.625 83.8125 C107.83301688 86.58444092 106.78004424 88.48303672 104.34375 90.09765625 C103.7353125 90.41605469 103.126875 90.73445313 102.5 91.0625 C100.22713195 92.2615342 98.84944218 93.15055782 97 95 C96.01 95 95.02 95 94 95 C93.67 95.99 93.34 96.98 93 98 C91.906875 98.12375 90.81375 98.2475 89.6875 98.375 C85.92618198 98.75464801 85.92618198 98.75464801 83 101 C82.67 101.99 82.34 102.98 82 104 C80.35 103.67 78.7 103.34 77 103 C76.67 104.32 76.34 105.64 76 107 C75.01 106.67 74.02 106.34 73 106 C75.7777607 109.01567076 78.33668209 110.87219514 82 112.6875 C98.86593511 121.59780534 98.86593511 121.59780534 101 128 C98.15810691 126.65184136 95.63647851 125.1157671 93.0625 123.3125 C83.21732944 116.15665628 83.21732944 116.15665628 72 113 C72.66644531 113.3403125 73.33289063 113.680625 74.01953125 114.03125 C80.32428694 117.34675789 86.02452342 121.04196918 91.6875 125.36328125 C93.98224308 127.15516263 93.98224308 127.15516263 97 128 C104.85065377 135.29255042 109.49031951 143.29670976 110 154 C106.6365783 151.75771887 106.49864285 151.15679162 105.3125 147.5 C99.55071801 132.50210305 86.08142116 124.21506846 72.32421875 117.3125 C65.95708036 114.79856522 61.42359894 114.73984482 55 117 C53.6078125 117.4021875 53.6078125 117.4021875 52.1875 117.8125 C49.85838881 118.82973136 49.85838881 118.82973136 48.8125 121.0625 C47.93085591 124.24998246 47.2436097 127.45222891 46.5625 130.6875 C46.04151174 132.82934061 45.37992303 134.76894242 44.5625 136.8125 C42.78164055 141.27820846 41.7367538 145.88351457 40.6484375 150.55859375 C40 153 40 153 39 154 C38.70087977 156.01684039 38.43610463 158.03881183 38.1875 160.0625 C37.46148366 165.05181529 36.43605427 168.9136882 33.953125 173.27734375 C32.59468811 175.7325514 31.80362627 178.32124575 31 181 C27.72772495 180.43581465 26.0643752 179.62360076 24 177 C23.56240344 172.09130815 25.019385 167.46238755 27.11328125 163.0703125 C28.7536811 159.24030403 29.82333491 155.21163597 31.0234375 151.2265625 C34.1569433 140.87345933 34.1569433 140.87345933 36.125 136.5 C37.21013742 133.39960737 37.42986705 130.44916784 37.65625 127.18359375 C38.0316878 124.79871043 38.82250655 123.09384925 40 121 C39.401875 120.896875 38.80375 120.79375 38.1875 120.6875 C35.68741714 119.90175967 34.62464918 119.03081147 33 117 C33 116.34 33 115.68 33 115 C32.34 115 31.68 115 31 115 C30.731875 114.38125 30.46375 113.7625 30.1875 113.125 C29.04443152 110.7004767 29.04443152 110.7004767 26 109 C26.47717842 103.63174274 26.47717842 103.63174274 28.5 101.1875 C32.20277188 99.42868335 35.94367849 99.25135326 40 99 C40.33 97.68 40.66 96.36 41 95 C41.33 95.99 41.66 96.98 42 98 C41.67 78.86 41.34 59.72 41 40 C37.04834882 41.59609966 37.04834882 41.59609966 35.4375 44.125 C34.963125 44.74375 34.48875 45.3625 34 46 C33.01 46 32.02 46 31 46 C29.53349634 43.06699268 29.63559705 41.27962656 30 38 C32.68011827 31.85856308 36.49377382 28.60022481 42 25 C42.33 24.34 42.66 23.68 43 23 C26.32162685 27.07374057 11.17379738 32.98682141 -4 41 C-4.82886719 41.43054688 -5.65773438 41.86109375 -6.51171875 42.3046875 C-24.79928317 51.84688257 -24.79928317 51.84688257 -38 67 C-38.75015195 70.04308291 -38.75015195 70.04308291 -38 73 C-34.78127492 76.5994345 -31.34436083 79.30521703 -27.3125 81.9375 C-26.25804687 82.6284375 -25.20359375 83.319375 -24.1171875 84.03125 C-21.42193228 85.73351646 -18.70025971 87.3486925 -15.9375 88.9375 C-3.76579533 96.16628126 8.66086286 106.43162323 12.71484375 120.4765625 C14.3890326 127.72043846 14.23345814 133.11711162 10.625 139.75 C6.17607053 146.80766913 -0.06414569 153.37609713 -7 158 C-7.99 158 -8.98 158 -10 158 C-10.33 158.99 -10.66 159.98 -11 161 C-13.51171875 162.31640625 -13.51171875 162.31640625 -16.6875 163.5625 C-17.72261719 163.97628906 -18.75773437 164.39007813 -19.82421875 164.81640625 C-25.93011792 167.09203657 -30.48576853 168.6304095 -37 168 C-39.43119623 166.12984906 -40.64069173 164.71861655 -42 162 C-42.48032374 156.29910837 -42.84919279 150.91068378 -40.5 145.625 C-39.675 144.75875 -38.85 143.8925 -38 143 C-37.51015625 142.46375 -37.0203125 141.9275 -36.515625 141.375 C-32.17843281 137.07619004 -27.20653269 134.30839747 -21.8125 131.5625 C-21.12317383 131.20816895 -20.43384766 130.85383789 -19.72363281 130.48876953 C-16.01365581 128.67689941 -13.23016902 127.53180654 -9 128 C-9.6875 129.9375 -9.6875 129.9375 -11 132 C-13.625 132.75 -13.625 132.75 -16 133 C-16.05929688 133.74378906 -16.11859375 134.48757813 -16.1796875 135.25390625 C-17.28275094 138.94654243 -18.95024273 139.82243692 -22.125 141.9375 C-30.44106086 147.54379224 -30.44106086 147.54379224 -37 155 C-37 156.32 -37 157.64 -37 159 C-30.27759512 159.37193634 -25.103984 158.88023487 -19 156 C-17.96875 155.525625 -16.9375 155.05125 -15.875 154.5625 C-12.03988893 152.47820051 -8.3509532 150.3509532 -5.25 147.25 C-4.8375 146.8375 -4.425 146.425 -4 146 C-3.34 146 -2.68 146 -2 146 C-2 145.34 -2 144.68 -2 144 C-1.2575 143.4225 -0.515 142.845 0.25 142.25 C6.16159227 137.41324269 8.37959535 131.66038745 9.625 124.3125 C9.39663145 118.00231648 5.09386928 113.44281399 1 109 C-6.06360585 102.50391485 -13.9957944 97.7516304 -22.25 92.9375 C-32.21559629 87.11351034 -39.63288655 82.00406397 -44 71 C-48.36889342 79.44508182 -52.44603087 87.79547674 -55.7265625 96.734375 C-57.1342778 100.34434429 -58.76106262 103.82263481 -60.4375 107.3125 C-65.17334363 117.27929818 -68.84076495 127.56573877 -72.38671875 138.00390625 C-72.60052689 138.63137756 -72.81433502 139.25884888 -73.03462219 139.90533447 C-74.10700336 143.05306262 -75.17152618 146.20272969 -76.22192383 149.35791016 C-84.05469618 172.49911951 -84.05469618 172.49911951 -90 176 C-93.09451217 176.61890243 -95.01252947 176.54621472 -97.80078125 175.00390625 C-103.95892666 170.34903402 -106.35044142 164.08542822 -107.53710938 156.62182617 C-108.22492851 150.85881845 -108.14299383 145.08900767 -108.1328125 139.29296875 C-108.13376923 138.09062088 -108.13472595 136.88827301 -108.13571167 135.64949036 C-108.13638957 133.12057442 -108.13456257 130.5916567 -108.13037109 128.06274414 C-108.12499385 124.18306614 -108.13034134 120.30350266 -108.13671875 116.42382812 C-108.13605836 113.96354141 -108.13477801 111.50325477 -108.1328125 109.04296875 C-108.13483673 107.88049118 -108.13686096 106.71801361 -108.13894653 105.52030945 C-108.13579437 104.44521622 -108.13264221 103.37012299 -108.12939453 102.26245117 C-108.12859894 101.31617355 -108.12780334 100.36989594 -108.12698364 99.39494324 C-108 97 -108 97 -107 94 C-106.76304912 92.26846321 -106.56363455 90.53166544 -106.38671875 88.79296875 C-106.27513428 87.74125488 -106.1635498 86.68954102 -106.04858398 85.60595703 C-105.86984741 83.9138208 -105.86984741 83.9138208 -105.6875 82.1875 C-104.70294788 73.27988446 -103.53222175 64.44494019 -101.9375 55.625 C-101.69422974 54.25444458 -101.69422974 54.25444458 -101.44604492 52.85620117 C-100.04769317 45.39619678 -100.04769317 45.39619678 -98 42 C-95.875 41.25 -95.875 41.25 -94 41 C-91.9375 43.125 -91.9375 43.125 -90 46 C-90.40147469 49.89698095 -91.38931456 53.59123977 -92.375 57.375 C-94.21206076 65.11947181 -95.08802189 72.96110234 -95.99755859 80.86083984 C-96.11437988 81.86840332 -96.23120117 82.8759668 -96.3515625 83.9140625 C-96.45291504 84.8210791 -96.55426758 85.7280957 -96.65869141 86.66259766 C-97 89 -97 89 -98 92 C-101.17941238 116.81432006 -103.37444935 143.37145542 -98 168 C-92.54521716 164.96956509 -91.66837947 160.73594244 -89.97265625 155.11328125 C-88.21522805 149.48809942 -85.64910319 144.25131961 -83 139 C-82.34 139 -81.68 139 -81 139 C-80.505 140.98 -80.505 140.98 -80 143 C-78.02 137.555 -78.02 137.555 -76 132 C-75.34 132 -74.68 132 -74 132 C-73.91363281 131.04738281 -73.82726562 130.09476563 -73.73828125 129.11328125 C-73.0286113 124.16796295 -71.10270844 119.77218228 -69.1875 115.1875 C-68.84396484 114.34896484 -68.50042969 113.51042969 -68.14648438 112.64648438 C-67.45217466 110.95174341 -66.75449648 109.25837856 -66.0534668 107.56640625 C-64.9806819 104.95293815 -63.94199016 102.32755913 -62.90625 99.69921875 C-61.52955734 96.24581447 -60.04627784 92.91753709 -58.3125 89.625 C-56.79507124 86.74047598 -55.71203464 84.17728664 -55 81 C-53.36363636 77.18181818 -53.36363636 77.18181818 -51 76 C-50.60828247 74.34608154 -50.27942455 72.67654729 -50 71 C-49.505 69.515 -49.505 69.515 -49 68 C-48.34 68 -47.68 68 -47 68 C-46.9175 67.34 -46.835 66.68 -46.75 66 C-45.29324169 60.17296676 -42.07681948 55.02015076 -39.0703125 49.859375 C-37.40906576 46.97341351 -35.83220138 44.04107993 -34.24609375 41.11328125 C-32.95763117 38.92814565 -31.64501503 36.93300174 -30 35 C-29.34 35 -28.68 35 -28 35 C-27.7834375 33.824375 -27.7834375 33.824375 -27.5625 32.625 C-27 30 -27 30 -26 28 C-25.34 28 -24.68 28 -24 28 C-23.9175 27.2575 -23.835 26.515 -23.75 25.75 C-22.85280293 22.4602774 -21.45029221 21.29714895 -19 19 C-18.505 17.515 -18.505 17.515 -18 16 C-17.34 16 -16.68 16 -16 16 C-16 15.34 -16 14.68 -16 14 C-14.625 12.375 -14.625 12.375 -13 11 C-12.34 11 -11.68 11 -11 11 C-10.34 9.35 -9.68 7.7 -9 6 C-10.65 6.66 -12.3 7.32 -14 8 C-11.427091 1.4507771 -6.90095357 -1.08962425 0 0 Z " fill="#EAEAEA" transform="translate(232,229)"/>
<path d="M0 0 C5.68495578 3.70757986 9.79192765 9.412996 11.875 15.875 C16.24606564 47.39524004 -13.33993883 83.87034558 -29.125 108.875 C-28.403125 109.42929688 -27.68125 109.98359375 -26.9375 110.5546875 C-26.009375 111.27914062 -25.08125 112.00359375 -24.125 112.75 C-23.196875 113.46929687 -22.26875 114.18859375 -21.3125 114.9296875 C-20.2296875 115.89261719 -20.2296875 115.89261719 -19.125 116.875 C-19.125 117.535 -19.125 118.195 -19.125 118.875 C-23.97159077 118.28395235 -27.73248167 116.89555843 -32.125 114.875 C-33.445 116.855 -34.765 118.835 -36.125 120.875 C-37.775 120.545 -39.425 120.215 -41.125 119.875 C-40.94839844 119.16214844 -40.77179688 118.44929688 -40.58984375 117.71484375 C-40.02444528 114.6030581 -39.76899201 112.02331159 -40.125 108.875 C-41.91845846 106.61306558 -43.84654485 105.37443805 -46.26171875 103.796875 C-63.09205753 92.50011282 -80.72656493 71.89928607 -84.7734375 51.69921875 C-85.87377193 42.85986547 -86.67011104 32.79229019 -82.125 24.875 C-77.25976719 19.54126328 -72.55638718 16.85336035 -65.3125 16.5 C-56.99857604 16.69736318 -50.78881239 21.03955693 -45.125 26.875 C-43.00759897 29.46449265 -41.02977523 32.12598373 -39.125 34.875 C-37.36203053 32.2305458 -35.90807836 29.55846643 -34.46118164 26.73461914 C-27.94737338 14.10625106 -16.94301804 -6.0994865 0 0 Z " fill="#131313" transform="translate(281.125,74.125)"/>
<path d="M0 0 C5.15965107 4.22065266 8.50230299 9.48116849 11.45703125 15.390625 C12.27237074 23.95837276 11.7484048 31.02332644 6.26708984 37.87890625 C-3.85511154 49.82070681 -15.71245285 61.1162893 -29.30078125 68.98828125 C-31.66181945 70.19400741 -31.66181945 70.19400741 -32.54296875 72.390625 C-34.25917484 73.14971615 -35.97858123 73.90304768 -37.71875 74.60546875 C-39.69921829 75.40573053 -39.69921829 75.40573053 -41.98046875 76.890625 C-46.41615581 79.48712474 -50.52216106 81.50949604 -55.73046875 81.203125 C-58.42521205 80.4246436 -60.94869943 79.45013331 -63.54296875 78.390625 C-61.78420813 71.25549045 -59.5323059 64.4598825 -56.82421875 57.62890625 C-55.89197715 55.27272245 -54.99158886 52.91505719 -54.11328125 50.5390625 C-52.21772089 45.45733459 -50.0966722 40.47210398 -47.97265625 35.48242188 C-46.43209044 31.80033678 -45.12381753 28.3702241 -44.54296875 24.390625 C-47.18296875 24.060625 -49.82296875 23.730625 -52.54296875 23.390625 C-54.75312384 29.2569409 -56.80314791 35.13520844 -58.60546875 41.140625 C-59.6152071 44.49201336 -60.64157356 47.61659437 -62.04296875 50.828125 C-63.50019491 54.28903713 -64.48805148 57.64735657 -65.48046875 61.265625 C-67.04322195 66.91325817 -68.93491883 72.14677994 -71.54296875 77.390625 C-72.20296875 77.390625 -72.86296875 77.390625 -73.54296875 77.390625 C-73.53852753 76.83289398 -73.5340863 76.27516296 -73.5295105 75.70053101 C-73.48481258 69.82674761 -73.45491239 63.95301353 -73.43310547 58.07910156 C-73.42312873 55.89516229 -73.40954254 53.71123608 -73.39208984 51.52734375 C-73.23308351 35.23582304 -73.23308351 35.23582304 -75.10986328 19.08447266 C-75.53626777 16.43230402 -75.76389187 14.06881316 -75.54296875 11.390625 C-72.07783019 7.81720086 -67.27535686 5.00438915 -62.54296875 3.390625 C-61.55296875 3.720625 -60.56296875 4.050625 -59.54296875 4.390625 C-59.87296875 5.380625 -60.20296875 6.370625 -60.54296875 7.390625 C-56.14516905 4.87904193 -56.14516905 4.87904193 -53.35546875 0.828125 C-50.27324893 -3.31692925 -45.40054329 -3.53141116 -40.54296875 -4.609375 C-39.30546875 -5.00125 -38.06796875 -5.393125 -36.79296875 -5.796875 C-24.36263815 -8.73357225 -10.82662758 -6.85187491 0 0 Z " fill="#131313" transform="translate(350.54296875,252.609375)"/>
<path d="M0 0 C1.6097168 0.00966797 1.6097168 0.00966797 3.25195312 0.01953125 C4.9312793 0.04466797 4.9312793 0.04466797 6.64453125 0.0703125 C7.77568359 0.07933594 8.90683594 0.08835938 10.07226562 0.09765625 C12.86739953 0.12124388 15.6621097 0.1541595 18.45703125 0.1953125 C18.45703125 1.8453125 18.45703125 3.4953125 18.45703125 5.1953125 C19.0603125 5.31648437 19.66359375 5.43765625 20.28515625 5.5625 C21.084375 5.73007813 21.88359375 5.89765625 22.70703125 6.0703125 C23.89039063 6.31394531 23.89039063 6.31394531 25.09765625 6.5625 C27.45703125 7.1953125 27.45703125 7.1953125 29.546875 8.2578125 C31.59860933 9.42535643 31.59860933 9.42535643 34.76953125 9.3203125 C40.19437838 10.60756436 42.42655842 13.6646056 45.45703125 18.1953125 C50.77377356 27.3901492 50.68464621 37.21682777 48.08203125 47.3203125 C47.15506771 50.47573383 46.30863685 52.41790411 44.45703125 55.1953125 C42.97203125 55.6903125 42.97203125 55.6903125 41.45703125 56.1953125 C40.23833196 58.69978766 40.23833196 58.69978766 39.45703125 61.1953125 C38.79703125 61.1953125 38.13703125 61.1953125 37.45703125 61.1953125 C37.45703125 62.1853125 37.45703125 63.1753125 37.45703125 64.1953125 C32.10819404 69.1953125 32.10819404 69.1953125 29.45703125 69.1953125 C29.45703125 69.8553125 29.45703125 70.5153125 29.45703125 71.1953125 C28.13703125 71.5253125 26.81703125 71.8553125 25.45703125 72.1953125 C25.33328125 72.7934375 25.20953125 73.3915625 25.08203125 74.0078125 C24.29004813 76.77975342 23.23707549 78.67834922 20.80078125 80.29296875 C20.19234375 80.61136719 19.58390625 80.92976563 18.95703125 81.2578125 C16.6841632 82.4568467 15.30647343 83.34587032 13.45703125 85.1953125 C12.46703125 85.1953125 11.47703125 85.1953125 10.45703125 85.1953125 C9.96203125 86.6803125 9.96203125 86.6803125 9.45703125 88.1953125 C8.36390625 88.3190625 7.27078125 88.4428125 6.14453125 88.5703125 C2.38321323 88.94996051 2.38321323 88.94996051 -0.54296875 91.1953125 C-1.03796875 92.6803125 -1.03796875 92.6803125 -1.54296875 94.1953125 C-3.19296875 93.8653125 -4.84296875 93.5353125 -6.54296875 93.1953125 C-7.03796875 95.1753125 -7.03796875 95.1753125 -7.54296875 97.1953125 C-8.53296875 96.8653125 -9.52296875 96.5353125 -10.54296875 96.1953125 C-7.76520805 99.21098326 -5.20628666 101.06750764 -1.54296875 102.8828125 C15.32296636 111.79311784 15.32296636 111.79311784 17.45703125 118.1953125 C14.61513816 116.84715386 12.09350976 115.3110796 9.51953125 113.5078125 C-0.32563931 106.35196878 -0.32563931 106.35196878 -11.54296875 103.1953125 C-10.87652344 103.535625 -10.21007812 103.8759375 -9.5234375 104.2265625 C-3.21868181 107.54207039 2.48155467 111.23728168 8.14453125 115.55859375 C10.43927433 117.35047513 10.43927433 117.35047513 13.45703125 118.1953125 C21.30768502 125.48786292 25.94735076 133.49202226 26.45703125 144.1953125 C23.09360955 141.95303137 22.9556741 141.35210412 21.76953125 137.6953125 C16.00774926 122.69741555 2.53845241 114.41038096 -11.21875 107.5078125 C-17.58588839 104.99387772 -22.11936981 104.93515732 -28.54296875 107.1953125 C-29.93515625 107.5975 -29.93515625 107.5975 -31.35546875 108.0078125 C-33.68457994 109.02504386 -33.68457994 109.02504386 -34.73046875 111.2578125 C-35.61211284 114.44529496 -36.29935905 117.64754141 -36.98046875 120.8828125 C-37.50145701 123.02465311 -38.16304572 124.96425492 -38.98046875 127.0078125 C-40.7613282 131.47352096 -41.80621495 136.07882707 -42.89453125 140.75390625 C-43.54296875 143.1953125 -43.54296875 143.1953125 -44.54296875 144.1953125 C-44.84208898 146.21215289 -45.10686412 148.23412433 -45.35546875 150.2578125 C-46.08148509 155.24712779 -47.10691448 159.1090007 -49.58984375 163.47265625 C-50.94828064 165.9278639 -51.73934248 168.51655825 -52.54296875 171.1953125 C-55.8152438 170.63112715 -57.47859355 169.81891326 -59.54296875 167.1953125 C-59.98056531 162.28662065 -58.52358375 157.65770005 -56.4296875 153.265625 C-54.78928765 149.43561653 -53.71963384 145.40694847 -52.51953125 141.421875 C-49.38602545 131.06877183 -49.38602545 131.06877183 -47.41796875 126.6953125 C-46.33283133 123.59491987 -46.1131017 120.64448034 -45.88671875 117.37890625 C-45.51128095 114.99402293 -44.7204622 113.28916175 -43.54296875 111.1953125 C-44.14109375 111.0921875 -44.73921875 110.9890625 -45.35546875 110.8828125 C-47.85555161 110.09707217 -48.91831957 109.22612397 -50.54296875 107.1953125 C-50.54296875 106.5353125 -50.54296875 105.8753125 -50.54296875 105.1953125 C-51.20296875 105.1953125 -51.86296875 105.1953125 -52.54296875 105.1953125 C-52.81109375 104.5765625 -53.07921875 103.9578125 -53.35546875 103.3203125 C-54.49853723 100.8957892 -54.49853723 100.8957892 -57.54296875 99.1953125 C-57.06579033 93.82705524 -57.06579033 93.82705524 -55.04296875 91.3828125 C-51.34019687 89.62399585 -47.59929026 89.44666576 -43.54296875 89.1953125 C-43.21296875 87.8753125 -42.88296875 86.5553125 -42.54296875 85.1953125 C-42.21296875 86.1853125 -41.88296875 87.1753125 -41.54296875 88.1953125 C-42.03796875 59.4853125 -42.03796875 59.4853125 -42.54296875 30.1953125 C-43.20296875 29.8653125 -43.86296875 29.5353125 -44.54296875 29.1953125 C-43.55296875 29.1953125 -42.56296875 29.1953125 -41.54296875 29.1953125 C-41.21296875 28.2053125 -40.88296875 27.2153125 -40.54296875 26.1953125 C-37.81373884 37.74580336 -37.25446415 49.1232389 -37.29296875 60.9453125 C-37.29401611 61.64292694 -37.29506348 62.34054138 -37.29614258 63.05929565 C-37.32596969 72.47596307 -37.75215223 81.81218255 -38.54296875 91.1953125 C-35.17768583 89.51267104 -34.75131859 85.65200748 -33.60546875 82.2578125 C-33.33750488 81.48236084 -33.06954102 80.70690918 -32.79345703 79.90795898 C-31.15129008 75.11705448 -29.64891443 70.3011615 -28.25 65.43359375 C-27.49349973 63.03870616 -26.57475837 60.76187728 -25.60546875 58.4453125 C-23.41130154 53.1574536 -21.94093518 47.72650019 -20.47265625 42.19921875 C-19.54296875 39.1953125 -19.54296875 39.1953125 -17.54296875 36.1953125 C-11.79296875 37.0703125 -11.79296875 37.0703125 -9.54296875 38.1953125 C-10.09191436 43.39690684 -11.36676929 47.81004076 -13.41796875 52.6328125 C-13.96670348 53.96200951 -14.51488717 55.29143414 -15.0625 56.62109375 C-15.55105469 57.80058594 -16.03960937 58.98007812 -16.54296875 60.1953125 C-17.30428432 62.16400078 -18.0391485 64.13940341 -18.765625 66.12109375 C-19.39984107 67.81339893 -20.05954644 69.49613354 -20.7265625 71.17578125 C-23.46094568 78.0969351 -25.76164017 84.96862176 -27.54296875 92.1953125 C-22.72240685 94.19408207 -19.61274151 94.46275569 -14.54296875 93.1953125 C-9.9797402 91.20585615 -5.68497341 88.95664894 -1.54296875 86.1953125 C-0.22296875 86.1953125 1.09703125 86.1953125 2.45703125 86.1953125 C2.95203125 84.7103125 2.95203125 84.7103125 3.45703125 83.1953125 C5.46875 81.79296875 5.46875 81.79296875 8.14453125 80.2578125 C21.83355445 71.83790616 37.55778797 58.99379905 44.83203125 44.4453125 C46.36911661 36.45246863 46.61808953 29.21172197 42.04296875 22.22265625 C34.94725431 13.15202621 25.61000705 9.64353846 14.48828125 7.66796875 C12.48501971 7.43657936 10.47082472 7.30130163 8.45703125 7.1953125 C8.78703125 5.2153125 9.11703125 3.2353125 9.45703125 1.1953125 C8.13703125 1.1953125 6.81703125 1.1953125 5.45703125 1.1953125 C5.45703125 2.5153125 5.45703125 3.8353125 5.45703125 5.1953125 C4.13703125 5.1953125 2.81703125 5.1953125 1.45703125 5.1953125 C1.45703125 4.5353125 1.45703125 3.8753125 1.45703125 3.1953125 C-1.84296875 2.8653125 -5.14296875 2.5353125 -8.54296875 2.1953125 C-5.14399202 -0.07067198 -3.97977702 -0.04211404 0 0 Z " fill="#ECECEC" transform="translate(315.54296875,238.8046875)"/>
<path d="M0 0 C5.68495578 3.70757986 9.79192765 9.412996 11.875 15.875 C16.24606564 47.39524004 -13.33993883 83.87034558 -29.125 108.875 C-28.403125 109.42929688 -27.68125 109.98359375 -26.9375 110.5546875 C-26.009375 111.27914062 -25.08125 112.00359375 -24.125 112.75 C-23.196875 113.46929687 -22.26875 114.18859375 -21.3125 114.9296875 C-20.2296875 115.89261719 -20.2296875 115.89261719 -19.125 116.875 C-19.125 117.535 -19.125 118.195 -19.125 118.875 C-23.97159077 118.28395235 -27.73248167 116.89555843 -32.125 114.875 C-33.445 116.855 -34.765 118.835 -36.125 120.875 C-37.775 120.545 -39.425 120.215 -41.125 119.875 C-40.94839844 119.16214844 -40.77179688 118.44929688 -40.58984375 117.71484375 C-40.02444528 114.6030581 -39.76899201 112.02331159 -40.125 108.875 C-41.91845846 106.61306558 -43.84654485 105.37443805 -46.26171875 103.796875 C-63.09205753 92.50011282 -80.72656493 71.89928607 -84.7734375 51.69921875 C-85.87377193 42.85986547 -86.67011104 32.79229019 -82.125 24.875 C-77.25976719 19.54126328 -72.55638718 16.85336035 -65.3125 16.5 C-56.99857604 16.69736318 -50.78881239 21.03955693 -45.125 26.875 C-43.00759897 29.46449265 -41.02977523 32.12598373 -39.125 34.875 C-37.36203053 32.2305458 -35.90807836 29.55846643 -34.46118164 26.73461914 C-27.94737338 14.10625106 -16.94301804 -6.0994865 0 0 Z M-29.125 25.875 C-29.6804248 26.76493652 -29.6804248 26.76493652 -30.24707031 27.67285156 C-34.70298363 34.71612636 -34.70298363 34.71612636 -35.95703125 42.734375 C-35.20481365 45.25449487 -34.26229934 47.50704092 -33.125 49.875 C-31.82629314 54.04453255 -30.85977742 57.49882748 -31.125 61.875 C-32.115 61.875 -33.105 61.875 -34.125 61.875 C-35.775 57.585 -37.425 53.295 -39.125 48.875 C-41.14850324 51.91025486 -41.44624018 53.06926202 -41.75 56.5625 C-41.82476562 57.37074219 -41.89953125 58.17898437 -41.9765625 59.01171875 C-42.02554688 59.62660156 -42.07453125 60.24148437 -42.125 60.875 C-42.785 60.875 -43.445 60.875 -44.125 60.875 C-43.85042969 59.75222656 -43.57585937 58.62945312 -43.29296875 57.47265625 C-40.84215916 48.00682457 -40.84215916 48.00682457 -42.875 38.8125 C-47.25102794 32.76605279 -52.962301 27.23949806 -60.125 24.875 C-65.95969971 24.21446796 -70.37406968 25.52869256 -75.125 28.875 C-79.46023153 33.62167712 -79.04981797 38.97236919 -79.16796875 45.10546875 C-78.25508302 63.66747857 -60.21849716 81.89624928 -47.875 94.375 C-47.28444824 94.97489746 -46.69389648 95.57479492 -46.08544922 96.19287109 C-42.97279948 99.28262723 -40.04492322 101.81188251 -36.125 103.875 C-35.84527344 103.39482422 -35.56554687 102.91464844 -35.27734375 102.41992188 C-29.13300669 91.91923009 -22.71510683 81.68755715 -15.875 71.625 C-7.81939168 59.67657135 -1.37774277 48.04443693 3.375 34.4375 C3.63104004 33.71578613 3.88708008 32.99407227 4.15087891 32.25048828 C5.96344643 26.70037841 7.21151715 20.5539561 5.15942383 14.90527344 C3.09021674 10.98204433 0.72275494 8.0612244 -3.125 5.875 C-16.09495176 3.49717551 -23.21961274 16.1569371 -29.125 25.875 Z " fill="#ECECEC" transform="translate(281.125,74.125)"/>
<path d="M0 0 C1.6097168 0.00966797 1.6097168 0.00966797 3.25195312 0.01953125 C4.9312793 0.04466797 4.9312793 0.04466797 6.64453125 0.0703125 C7.77568359 0.07933594 8.90683594 0.08835938 10.07226562 0.09765625 C12.86739953 0.12124388 15.6621097 0.1541595 18.45703125 0.1953125 C18.45703125 1.8453125 18.45703125 3.4953125 18.45703125 5.1953125 C19.0603125 5.31648437 19.66359375 5.43765625 20.28515625 5.5625 C21.48398437 5.81386719 21.48398437 5.81386719 22.70703125 6.0703125 C23.89039063 6.31394531 23.89039063 6.31394531 25.09765625 6.5625 C27.45703125 7.1953125 27.45703125 7.1953125 29.546875 8.2578125 C31.59860933 9.42535643 31.59860933 9.42535643 34.76953125 9.3203125 C40.19437838 10.60756436 42.42655842 13.6646056 45.45703125 18.1953125 C50.77377356 27.3901492 50.68464621 37.21682777 48.08203125 47.3203125 C47.15506771 50.47573383 46.30863685 52.41790411 44.45703125 55.1953125 C43.46703125 55.5253125 42.47703125 55.8553125 41.45703125 56.1953125 C40.23833196 58.69978766 40.23833196 58.69978766 39.45703125 61.1953125 C38.79703125 61.1953125 38.13703125 61.1953125 37.45703125 61.1953125 C37.45703125 62.1853125 37.45703125 63.1753125 37.45703125 64.1953125 C32.10819404 69.1953125 32.10819404 69.1953125 29.45703125 69.1953125 C29.45703125 69.8553125 29.45703125 70.5153125 29.45703125 71.1953125 C27.47703125 71.6903125 27.47703125 71.6903125 25.45703125 72.1953125 C25.33328125 72.7934375 25.20953125 73.3915625 25.08203125 74.0078125 C24.29004813 76.77975342 23.23707549 78.67834922 20.80078125 80.29296875 C20.19234375 80.61136719 19.58390625 80.92976563 18.95703125 81.2578125 C16.6841632 82.4568467 15.30647343 83.34587032 13.45703125 85.1953125 C12.46703125 85.1953125 11.47703125 85.1953125 10.45703125 85.1953125 C10.12703125 86.1853125 9.79703125 87.1753125 9.45703125 88.1953125 C8.36390625 88.3190625 7.27078125 88.4428125 6.14453125 88.5703125 C2.38321323 88.94996051 2.38321323 88.94996051 -0.54296875 91.1953125 C-0.87296875 92.1853125 -1.20296875 93.1753125 -1.54296875 94.1953125 C-3.19296875 93.8653125 -4.84296875 93.5353125 -6.54296875 93.1953125 C-6.87296875 94.5153125 -7.20296875 95.8353125 -7.54296875 97.1953125 C-8.53296875 96.8653125 -9.52296875 96.5353125 -10.54296875 96.1953125 C-11.03796875 97.1853125 -11.03796875 97.1853125 -11.54296875 98.1953125 C-11.21296875 96.8753125 -10.88296875 95.5553125 -10.54296875 94.1953125 C-11.53296875 93.5353125 -12.52296875 92.8753125 -13.54296875 92.1953125 C-12.30546875 91.7621875 -11.06796875 91.3290625 -9.79296875 90.8828125 C-7.24859648 89.94211148 -5.48140257 89.14913787 -3.29296875 87.5078125 C-1.54296875 86.1953125 -1.54296875 86.1953125 2.45703125 86.1953125 C2.95203125 84.7103125 2.95203125 84.7103125 3.45703125 83.1953125 C5.46875 81.79296875 5.46875 81.79296875 8.14453125 80.2578125 C21.83355445 71.83790616 37.55778797 58.99379905 44.83203125 44.4453125 C46.36911661 36.45246863 46.61808953 29.21172197 42.04296875 22.22265625 C34.94725431 13.15202621 25.61000705 9.64353846 14.48828125 7.66796875 C12.48501971 7.43657936 10.47082472 7.30130163 8.45703125 7.1953125 C8.78703125 5.2153125 9.11703125 3.2353125 9.45703125 1.1953125 C8.13703125 1.1953125 6.81703125 1.1953125 5.45703125 1.1953125 C5.45703125 2.5153125 5.45703125 3.8353125 5.45703125 5.1953125 C4.13703125 5.1953125 2.81703125 5.1953125 1.45703125 5.1953125 C1.45703125 4.5353125 1.45703125 3.8753125 1.45703125 3.1953125 C-1.84296875 2.8653125 -5.14296875 2.5353125 -8.54296875 2.1953125 C-5.14399202 -0.07067198 -3.97977702 -0.04211404 0 0 Z " fill="#E5E5E5" transform="translate(315.54296875,238.8046875)"/>
<path d="M0 0 C6.27860179 0.71823791 12.45575285 0.94783045 18.77734375 0.71655273 C18.11734375 1.70655273 17.45734375 2.69655273 16.77734375 3.71655273 C14.67307689 3.57217238 12.56893606 3.42595499 10.46484375 3.27905273 C9.29308594 3.1978418 8.12132812 3.11663086 6.9140625 3.03295898 C4.73337232 2.87704152 2.56200863 2.69427138 0.38720703 2.46923828 C-7.64425042 1.64724427 -15.65245861 1.43254829 -23.72265625 1.40405273 C-24.43831757 1.40143433 -25.15397888 1.39881592 -25.8913269 1.39611816 C-44.46180229 1.38891243 -62.51429301 3.90540423 -80.43359375 8.79077148 C-84.72021809 9.83812197 -88.98275675 10.47695482 -93.34765625 11.09155273 C-110.8667678 13.65303733 -128.95209413 17.40600205 -142.21069336 29.84301758 C-144.08930627 31.59237755 -146.00915158 33.27171205 -147.95703125 34.94311523 C-152.24036547 38.68033548 -156.27844676 42.62402582 -160.28515625 46.65405273 C-160.95353516 47.31856445 -161.62191406 47.98307617 -162.31054688 48.66772461 C-166.27460306 52.63948548 -170.04306034 56.72665725 -173.71069336 60.97314453 C-178.15073322 66.09284817 -182.97421862 70.57751097 -188.28515625 74.77905273 C-193.16129792 78.69494863 -197.61602 82.91806747 -202.03515625 87.34155273 C-202.65720947 87.96296143 -203.2792627 88.58437012 -203.92016602 89.22460938 C-207.47216668 92.81849347 -210.8006918 96.5054892 -213.9675293 100.44458008 C-214.58881714 101.07420654 -214.58881714 101.07420654 -215.22265625 101.71655273 C-215.88265625 101.71655273 -216.54265625 101.71655273 -217.22265625 101.71655273 C-216.27740998 97.43403238 -214.32348791 93.80594244 -212.29296875 89.95092773 C-211.90196991 89.19869934 -211.51097107 88.44647095 -211.10812378 87.67144775 C-209.43996579 84.46226594 -207.7621334 81.25817685 -206.08447266 78.05395508 C-204.85856008 75.70904368 -203.638143 73.36132884 -202.41796875 71.01342773 C-201.85530807 69.94581207 -201.85530807 69.94581207 -201.28128052 68.85662842 C-196.38703799 59.7519963 -196.38703799 59.7519963 -195.22265625 49.71655273 C-204.70864776 55.02581197 -204.70864776 55.02581197 -213.22265625 61.71655273 C-213.88265625 61.38655273 -214.54265625 61.05655273 -215.22265625 60.71655273 C-212.34148874 57.65277601 -209.37899663 55.30909183 -205.84765625 53.02905273 C-204.93242187 52.42706055 -204.0171875 51.82506836 -203.07421875 51.20483398 C-200.06266444 49.63305016 -197.58075217 49.08802352 -194.22265625 48.71655273 C-192.47609485 56.89781404 -194.32771382 61.33085524 -198.28515625 68.52905273 C-198.79087158 69.49085449 -199.29658691 70.45265625 -199.81762695 71.44360352 C-200.8176432 73.34483729 -201.82579474 75.24181845 -202.84277344 77.1340332 C-204.59965376 80.42212238 -206.26053544 83.7484806 -207.91015625 87.09155273 C-208.68098958 88.6332194 -209.45182292 90.17488607 -210.22265625 91.71655273 C-209.03470942 91.82994867 -209.03470942 91.82994867 -207.85913086 90.45068359 C-207.28686768 89.86681885 -206.71460449 89.2829541 -206.125 88.68139648 C-205.49247314 88.04041016 -204.85994629 87.39942383 -204.20825195 86.73901367 C-203.19444458 85.70695801 -203.19444458 85.70695801 -202.16015625 84.65405273 C-197.63647387 80.08852854 -193.12386341 75.5949558 -188.2265625 71.42749023 C-181.24012478 65.46246154 -174.5880885 59.26662595 -168.41015625 52.46655273 C-159.11144931 42.26091598 -149.7733365 32.30875823 -138.72265625 23.96655273 C-138.07651367 23.47727295 -137.43037109 22.98799316 -136.76464844 22.48388672 C-129.69126226 17.31987524 -122.11562716 14.94962409 -113.72265625 12.77905273 C-112.72089355 12.51817871 -111.71913086 12.25730469 -110.68701172 11.98852539 C-102.65803406 9.9571577 -94.59890935 8.44415147 -86.42749023 7.11743164 C-80.79930101 6.19695363 -75.30787214 5.06875839 -69.78515625 3.65405273 C-46.91702994 -2.00969093 -23.32827301 -2.67418295 0 0 Z M-213.22265625 94.71655273 C-212.22265625 96.71655273 -212.22265625 96.71655273 -212.22265625 96.71655273 Z " fill="#000000" transform="translate(269.22265625,15.283447265625)"/>
<path d="M0 0 C0.66 0.33 1.32 0.66 2 1 C1.6596875 1.4640625 1.319375 1.928125 0.96875 2.40625 C-10.0965201 18.18014568 -19.04648904 37.83953736 -22.80957031 56.74584961 C-23.82472862 61.82472862 -23.82472862 61.82472862 -26 64 C-27.43187316 68.55178794 -28.42813348 73.22661272 -29.5 77.875 C-29.65818207 78.55139526 -29.81636414 79.22779053 -29.9793396 79.92468262 C-32.27635095 89.80899632 -33.93891081 99.56706392 -34.61328125 109.703125 C-34.83057116 112.761281 -35.31137706 115.64390482 -35.97094727 118.63671875 C-37.0236231 123.78954024 -37.5171375 128.86661911 -37.8515625 134.109375 C-37.94719986 135.50328461 -37.94719986 135.50328461 -38.04476929 136.925354 C-38.17721847 138.8780837 -38.30646166 140.8310333 -38.43261719 142.78417969 C-38.62364792 145.72915604 -38.82665101 148.6731261 -39.03125 151.6171875 C-40.08708808 167.15931778 -40.43005555 181.87378034 -37.875 197.3125 C-37.76362701 198.00021484 -37.65225403 198.68792969 -37.5375061 199.39648438 C-33.05698872 227.38014508 -33.05698872 227.38014508 -22.01025391 253.25292969 C-21.02709616 254.95314158 -20.09662307 256.68347855 -19.16796875 258.4140625 C-11.58807922 272.29722858 -2.41796539 285.38720247 7.57348633 297.63671875 C9.74403525 300.30867233 11.63189553 302.82813768 13 306 C8.32003068 302.37612995 4.85535154 298.58272255 1.375 293.8125 C0.60675903 292.77125977 0.60675903 292.77125977 -0.17700195 291.70898438 C-32.80106555 247.07548288 -47.4883932 199.01556067 -40.50390625 143.54296875 C-39.79077187 137.66575786 -39.59793754 131.76044729 -39.42993164 125.84570312 C-39.26891645 121.44127637 -38.67570989 117.65801062 -37.48144531 113.39111328 C-36.84730792 110.24165 -36.73421565 107.14961164 -36.578125 103.94140625 C-36.12786372 96.04127841 -34.62589715 88.62867833 -32.75 80.9375 C-32.46253906 79.69162109 -32.17507812 78.44574219 -31.87890625 77.16210938 C-30.08305712 69.61405352 -27.79941558 62.42090312 -25.09838867 55.15063477 C-24.17488548 52.50164417 -23.48232636 49.99493628 -22.94140625 47.25 C-21.93908642 42.21401066 -19.99591871 37.68737501 -17.9375 33 C-17.54409424 32.09443359 -17.15068848 31.18886719 -16.74536133 30.25585938 C-14.0880593 24.23327452 -11.25084473 18.32634892 -8.1875 12.5 C-7.6469397 11.46939453 -7.6469397 11.46939453 -7.09545898 10.41796875 C-5.04663397 6.62353152 -2.81804414 3.2929954 0 0 Z " fill="#000000" transform="translate(52,77)"/>
<path d="M0 0 C5.92909506 0.5861719 11.31580266 1.80404381 17 3.5625 C17.77472656 3.79646484 18.54945313 4.03042969 19.34765625 4.27148438 C21.2335214 4.84190038 23.1170209 5.42012803 25 6 C25.34675781 5.18789063 25.69351562 4.37578125 26.05078125 3.5390625 C28 1 28 1 31.23046875 0.3359375 C47.95203798 0.50100729 61.49784326 5.99514921 76 14 C76.68610352 14.37737305 77.37220703 14.75474609 78.07910156 15.14355469 C80.12733012 16.28423092 82.15991694 17.44806529 84.1875 18.625 C84.79924072 18.97272461 85.41098145 19.32044922 86.04125977 19.67871094 C90.28388704 22.21660031 92.90744378 25.19453336 96 29 C97.99563433 30.64097253 100.04037687 32.2236666 102.125 33.75 C106.68806968 37.16031492 111.08221022 40.6827971 115.3125 44.5 C116.21613281 45.3146875 117.11976563 46.129375 118.05078125 46.96875 C120 49 120 49 120 51 C121.485 51.495 121.485 51.495 123 52 C124.61328125 53.6015625 124.61328125 53.6015625 126.3125 55.625 C127.22128906 56.70007813 127.22128906 56.70007813 128.1484375 57.796875 C128.75945312 58.52390625 129.37046875 59.2509375 130 60 C130.59039062 60.66515625 131.18078125 61.3303125 131.7890625 62.015625 C132.33304688 62.62921875 132.87703125 63.2428125 133.4375 63.875 C133.93121094 64.42929688 134.42492187 64.98359375 134.93359375 65.5546875 C136 67 136 67 136 69 C136.66 69 137.32 69 138 69 C139.42041016 70.74414063 139.42041016 70.74414063 141.0390625 73.15625 C141.90917969 74.44208984 141.90917969 74.44208984 142.796875 75.75390625 C143.40015625 76.66011719 144.0034375 77.56632812 144.625 78.5 C145.23601562 79.40621094 145.84703125 80.31242187 146.4765625 81.24609375 C147.99051742 83.49337058 149.49796882 85.74474343 151 88 C150.67 88.66 150.34 89.32 150 90 C146.9254558 86.24300549 144.09699021 82.34797874 141.3125 78.375 C135.11192275 69.62977027 128.60391237 61.34000529 120.875 53.8828125 C119.06730935 52.06758981 117.48592459 50.17699186 115.875 48.1875 C112.12016117 43.78947118 107.65729268 40.41252026 103.06201172 36.9440918 C99.41801944 34.18451943 96.22116334 31.25818821 93 28 C77.30046837 15.21062545 56.7468768 3.40756603 36 3.875 C35.22527344 3.88402344 34.45054687 3.89304687 33.65234375 3.90234375 C31.76809157 3.92560612 29.88400168 3.9614636 28 4 C28.58593357 7.09803959 29.4764341 8.89648975 31.5625 11.25 C32.366875 12.1575 33.17125 13.065 34 14 C32.02 14.99 32.02 14.99 30 16 C27 11.25 27 11.25 27 9 C20.88384914 7.05929828 14.71255478 5.35062675 8.5 3.75 C7.79359375 3.56276367 7.0871875 3.37552734 6.359375 3.18261719 C2.61752482 2.04722749 2.61752482 2.04722749 -1 3 C-0.67 2.01 -0.34 1.02 0 0 Z M29 11 C29.33 11.99 29.66 12.98 30 14 C30.66 13.67 31.32 13.34 32 13 C31.01 12.34 30.02 11.68 29 11 Z " fill="#000000" transform="translate(289,13)"/>
<path d="M0 0 C1.6097168 0.00966797 1.6097168 0.00966797 3.25195312 0.01953125 C4.9312793 0.04466797 4.9312793 0.04466797 6.64453125 0.0703125 C7.77568359 0.07933594 8.90683594 0.08835938 10.07226562 0.09765625 C12.86739953 0.12124388 15.6621097 0.1541595 18.45703125 0.1953125 C18.45703125 1.8453125 18.45703125 3.4953125 18.45703125 5.1953125 C19.0603125 5.31648437 19.66359375 5.43765625 20.28515625 5.5625 C21.084375 5.73007813 21.88359375 5.89765625 22.70703125 6.0703125 C23.89039063 6.31394531 23.89039063 6.31394531 25.09765625 6.5625 C27.45703125 7.1953125 27.45703125 7.1953125 29.546875 8.2578125 C31.59860933 9.42535643 31.59860933 9.42535643 34.76953125 9.3203125 C40.19437838 10.60756436 42.42655842 13.6646056 45.45703125 18.1953125 C50.24312672 26.47244231 50.70854868 35.2023319 48.7734375 44.46875 C48.07323907 47.0752303 47.31801906 49.63797371 46.45703125 52.1953125 C44.90625 50.91015625 44.90625 50.91015625 43.45703125 49.1953125 C43.8973991 47.33221776 44.3527548 45.47127064 44.88671875 43.6328125 C46.41396759 37.1053928 46.52686187 30.43978471 43.45703125 24.3828125 C37.00536967 14.52709744 28.49837895 11.01463098 17.45703125 8.1953125 C14.40900948 7.65388758 11.55345896 7.35828238 8.45703125 7.1953125 C8.78703125 5.2153125 9.11703125 3.2353125 9.45703125 1.1953125 C8.13703125 1.1953125 6.81703125 1.1953125 5.45703125 1.1953125 C5.45703125 2.5153125 5.45703125 3.8353125 5.45703125 5.1953125 C4.13703125 5.1953125 2.81703125 5.1953125 1.45703125 5.1953125 C1.45703125 4.5353125 1.45703125 3.8753125 1.45703125 3.1953125 C-1.84296875 2.8653125 -5.14296875 2.5353125 -8.54296875 2.1953125 C-5.14399202 -0.07067198 -3.97977702 -0.04211404 0 0 Z " fill="#DDDDDD" transform="translate(315.54296875,238.8046875)"/>
<path d="M0 0 C1.32 0.66 2.64 1.32 4 2 C-1.86371055 19.02430631 -1.86371055 19.02430631 -5.1875 26.12890625 C-6.44099222 29.01555419 -7.22233528 31.95414652 -8 35 C-8.66 35 -9.32 35 -10 35 C-10.103125 36.03125 -10.20625 37.0625 -10.3125 38.125 C-10.99127797 41.95083945 -12.11158795 44.63370025 -14 48 C-14.33 48 -14.66 48 -15 48 C-15 46.02 -15 44.04 -15 42 C-15.66 41.67 -16.32 41.34 -17 41 C-16.63648438 40.030625 -16.27296875 39.06125 -15.8984375 38.0625 C-15.65859131 37.42256104 -15.41874512 36.78262207 -15.17163086 36.12329102 C-14.63430678 34.69114038 -14.09603665 33.25934439 -13.55688477 31.82788086 C-12.1630821 28.123332 -10.78354682 24.41501232 -9.44140625 20.69140625 C-6.82128292 13.47000828 -4.10449638 6.53813582 0 0 Z " fill="#676767" transform="translate(166,326)"/>
<path d="M0 0 C9.98866652 1.26863356 17.79452502 7.33597295 25.58984375 13.36328125 C27.8204976 15.09864487 27.8204976 15.09864487 30.09375 15.44921875 C34.47179307 16.71418611 36.81336869 22.28695215 39 26 C42.2154795 32.5546313 42.36347825 38.79774586 42 46 C41.34 46 40.68 46 40 46 C40 45.34 40 44.68 40 44 C39.34 44 38.68 44 38 44 C38.061875 42.989375 38.12375 41.97875 38.1875 40.9375 C37.97921778 36.56357347 36.91920879 33.90949939 35 30 C34.566875 28.989375 34.13375 27.97875 33.6875 26.9375 C32.19360235 24.3370115 30.92690409 22.79988002 28.8125 20.75 C27.884375 19.8425 26.95625 18.935 26 18 C26 17.34 26 16.68 26 16 C25.44570313 15.91234375 24.89140625 15.8246875 24.3203125 15.734375 C21.31217558 14.78230473 19.36589487 13.18171439 16.875 11.25 C12.40406234 7.89679676 7.98578809 5.30273721 2.8984375 3.0078125 C1 2 1 2 0 0 Z " fill="#333333" transform="translate(303,341)"/>
<path d="M0 0 C5.28971934 9.16227692 4.29755895 22.11887142 4.20581055 32.44116211 C4.18748349 34.56441296 4.18530251 36.68722473 4.18554688 38.81054688 C4.16321717 47.24202507 3.78637581 55.601434 3 64 C2.01 63.67 1.02 63.34 0 63 C-0.33 43.53 -0.66 24.06 -1 4 C-1.66 3.67 -2.32 3.34 -3 3 C-2.01 3 -1.02 3 0 3 C0 2.01 0 1.02 0 0 Z " fill="#9E9E9E" transform="translate(274,265)"/>
<path d="M0 0 C0.99 0 1.98 0 3 0 C3 0.66 3 1.32 3 2 C3.66 2.33 4.32 2.66 5 3 C4.48050781 4.00417969 3.96101563 5.00835937 3.42578125 6.04296875 C-0.41814364 13.55261111 -3.92166684 21.00751182 -6.8359375 28.9375 C-8.65787995 33.73079826 -10.81610788 38.36271418 -13 43 C-13.99 43 -14.98 43 -16 43 C-16.99 43.495 -16.99 43.495 -18 44 C-15.20235734 35.42849907 -12.28845068 27.29438494 -8.0859375 19.296875 C-7.08402093 17.17771333 -6.50754081 15.27668305 -6 13 C-4.36363636 9.18181818 -4.36363636 9.18181818 -2 8 C-1.60828247 6.34608154 -1.27942455 4.67654729 -1 3 C-0.67 2.01 -0.34 1.02 0 0 Z " fill="#E1E1E1" transform="translate(183,297)"/>
<path d="M0 0 C-0.66 1.65 -1.32 3.3 -2 5 C-2.66 5 -3.32 5 -4 5 C-4.33 5.99 -4.66 6.98 -5 8 C-5.66 8 -6.32 8 -7 8 C-7 8.66 -7 9.32 -7 10 C-7.66 10 -8.32 10 -9 10 C-9.0825 10.556875 -9.165 11.11375 -9.25 11.6875 C-10.22461509 14.69256318 -12.00824469 16.57254822 -14 19 C-14.33 19.99 -14.66 20.98 -15 22 C-15.66 22 -16.32 22 -17 22 C-17.66 24.31 -18.32 26.62 -19 29 C-19.66 29 -20.32 29 -21 29 C-21.28617188 29.57234375 -21.57234375 30.1446875 -21.8671875 30.734375 C-24.43359375 35.8671875 -24.43359375 35.8671875 -27 41 C-27.33 39.68 -27.66 38.36 -28 37 C-28.66 37 -29.32 37 -30 37 C-30 36.34 -30 35.68 -30 35 C-29.34 35 -28.68 35 -28 35 C-27.85304687 33.92878906 -27.85304687 33.92878906 -27.703125 32.8359375 C-26.40733872 27.60959952 -22.97530174 23.42189219 -20 19 C-19.29037109 17.89398438 -19.29037109 17.89398438 -18.56640625 16.765625 C-15.51371794 12.16281771 -15.51371794 12.16281771 -12.85546875 11.3203125 C-12.24316406 11.21460938 -11.63085938 11.10890625 -11 11 C-10.938125 10.278125 -10.87625 9.55625 -10.8125 8.8125 C-9.74007034 5.1002435 -7.90242087 3.48778932 -5 1 C-2 0 -2 0 0 0 Z " fill="#3B3B3B" transform="translate(223,235)"/>
<path d="M0 0 C0.99 0 1.98 0 3 0 C3 0.66 3 1.32 3 2 C1.2421875 2.9765625 -0.515625 3.953125 -2.2734375 4.9296875 C-4.1612614 6.00897274 -4.1612614 6.00897274 -6 8 C-6.99 8 -7.98 8 -9 8 C-9.33 8.99 -9.66 9.98 -10 11 C-11.6396875 11.185625 -11.6396875 11.185625 -13.3125 11.375 C-17.07381802 11.75464801 -17.07381802 11.75464801 -20 14 C-20.33 14.99 -20.66 15.98 -21 17 C-22.65 16.67 -24.3 16.34 -26 16 C-26.33 17.32 -26.66 18.64 -27 20 C-27.99 19.67 -28.98 19.34 -30 19 C-30.33 19.66 -30.66 20.32 -31 21 C-30.67 19.68 -30.34 18.36 -30 17 C-30.99 16.34 -31.98 15.68 -33 15 C-31.7625 14.566875 -30.525 14.13375 -29.25 13.6875 C-26.70562773 12.74679898 -24.93843382 11.95382537 -22.75 10.3125 C-21 9 -21 9 -17 9 C-16.67 8.01 -16.34 7.02 -16 6 C-13.93359375 4.61328125 -13.93359375 4.61328125 -11.4375 3.3125 C-10.61121094 2.87550781 -9.78492188 2.43851562 -8.93359375 1.98828125 C-8.29550781 1.66214844 -7.65742188 1.33601563 -7 1 C-6.67 1.99 -6.34 2.98 -6 4 C-2.81765895 2.24545615 -2.81765895 2.24545615 0 0 Z " fill="#B8B8B8" transform="translate(335,316)"/>
<path d="M0 0 C1.6097168 0.00966797 1.6097168 0.00966797 3.25195312 0.01953125 C4.9312793 0.04466797 4.9312793 0.04466797 6.64453125 0.0703125 C7.77568359 0.07933594 8.90683594 0.08835938 10.07226562 0.09765625 C12.86739953 0.12124388 15.6621097 0.1541595 18.45703125 0.1953125 C18.45703125 1.8453125 18.45703125 3.4953125 18.45703125 5.1953125 C19.0603125 5.30488281 19.66359375 5.41445312 20.28515625 5.52734375 C28.22328784 7.10216663 28.22328784 7.10216663 31.45703125 10.1953125 C28.04829733 11.36535847 26.13502399 11.00175762 22.76953125 9.8203125 C17.95685413 8.25422589 13.49519461 7.601616 8.45703125 7.1953125 C8.78703125 5.2153125 9.11703125 3.2353125 9.45703125 1.1953125 C8.13703125 1.1953125 6.81703125 1.1953125 5.45703125 1.1953125 C5.45703125 2.5153125 5.45703125 3.8353125 5.45703125 5.1953125 C4.13703125 5.1953125 2.81703125 5.1953125 1.45703125 5.1953125 C1.45703125 4.5353125 1.45703125 3.8753125 1.45703125 3.1953125 C-1.84296875 2.8653125 -5.14296875 2.5353125 -8.54296875 2.1953125 C-5.14399202 -0.07067198 -3.97977702 -0.04211404 0 0 Z " fill="#E5E5E5" transform="translate(315.54296875,238.8046875)"/>
<path d="M0 0 C2.50164525 1.43734881 3.96305664 2.86369354 6 5 C6 5.99 6 6.98 6 8 C5.14728516 7.87818359 5.14728516 7.87818359 4.27734375 7.75390625 C0.50180855 7.44505613 -2.00065811 7.27764961 -5.15625 9.55859375 C-6.87424991 11.30827808 -8.47638564 13.07956003 -10 15 C-11.0859375 13.171875 -11.0859375 13.171875 -12 11 C-10.625 8.25 -10.625 8.25 -9 6 C-10.65 6.66 -12.3 7.32 -14 8 C-11.427091 1.4507771 -6.90095357 -1.08962425 0 0 Z " fill="#E8E8E8" transform="translate(232,229)"/>
<path d="M0 0 C4.63647064 1.3080737 7.87735333 3.13447934 11.6875 6.0625 C15.56415744 9.05314187 15.56415744 9.05314187 20 11 C27.85065377 18.29255042 32.49031951 26.29670976 33 37 C29.6365783 34.75771887 29.49864285 34.15679162 28.3125 30.5 C23.16036073 17.08900077 11.39461909 8.47900543 -1 2 C-0.67 1.34 -0.34 0.68 0 0 Z " fill="#E7E7E7" transform="translate(309,346)"/>
<path d="M0 0 C0.33 0.99 0.66 1.98 1 3 C1.2475 3.598125 1.495 4.19625 1.75 4.8125 C2.12998067 8.13733085 0.60923446 10.13913873 -1 13 C-2.9089034 16.57458745 -4.05358163 20.20509986 -5.21875 24.07421875 C-6 26 -6 26 -8 27 C-8 26.34 -8 25.68 -8 25 C-8.66 25 -9.32 25 -10 25 C-10 25.99 -10 26.98 -10 28 C-10.66 28 -11.32 28 -12 28 C-10.72870355 18.94201277 -6.39424852 11.86387392 -2 4 C-1.32234416 2.67221809 -0.64903081 1.34200642 0 0 Z " fill="#505050" transform="translate(181,293)"/>
<path d="M0 0 C1.32 0 2.64 0 4 0 C4 1.65 4 3.3 4 5 C-1.69398894 7.09570426 -6.95198929 8.45018084 -13 9 C-13.66 7.35 -14.32 5.7 -15 4 C-17.64 4 -20.28 4 -23 4 C-18.00981937 0.67321292 -12.23068068 0.73077992 -6.375 1.4375 C-5.59125 1.623125 -4.8075 1.80875 -4 2 C-4 2.66 -4 3.32 -4 4 C-2.68 4 -1.36 4 0 4 C0 2.68 0 1.36 0 0 Z " fill="#D5D5D5" transform="translate(321,240)"/>
<path d="M0 0 C6.0547207 5.53574464 10.47278143 11.80855495 12 20 C12.14436766 23.67390815 12.11959443 27.32579321 12 31 C11.34 31 10.68 31 10 31 C10 30.34 10 29.68 10 29 C9.34 29 8.68 29 8 29 C8.0928125 27.4840625 8.0928125 27.4840625 8.1875 25.9375 C7.98017843 21.58374693 6.8506355 18.91480586 5 15 C3 9.42105263 3 9.42105263 3 7 C2.67 6.01 2.34 5.02 2 4 C1.34 4 0.68 4 0 4 C-0.33 3.01 -0.66 2.02 -1 1 C-0.67 0.67 -0.34 0.34 0 0 Z " fill="#7D7D7D" transform="translate(333,356)"/>
<path d="M0 0 C0.33 0 0.66 0 1 0 C2.00371872 4.16488449 2.12908004 8.07780237 2.1328125 12.35546875 C2.13376923 13.05714676 2.13472595 13.75882477 2.13571167 14.48176575 C2.13639 15.96351206 2.13455999 17.4452614 2.13037109 18.92700195 C2.12505823 21.16299354 2.13030697 23.39878056 2.13671875 25.63476562 C2.13986062 33.14855512 1.93063752 40.53274182 1 48 C0.67 48 0.34 48 0 48 C0.01160156 47.21753906 0.02320313 46.43507813 0.03515625 45.62890625 C0.04417969 44.61699219 0.05320312 43.60507812 0.0625 42.5625 C0.07990234 41.04849609 0.07990234 41.04849609 0.09765625 39.50390625 C0.28612676 37.05978933 0.28612676 37.05978933 -1 36 C-1.08737645 34.14630389 -1.10698153 32.28932459 -1.09765625 30.43359375 C-1.09443359 29.30888672 -1.09121094 28.18417969 -1.08789062 27.02539062 C-1.07951172 25.84138672 -1.07113281 24.65738281 -1.0625 23.4375 C-1.05798828 22.24962891 -1.05347656 21.06175781 -1.04882812 19.83789062 C-1.03699675 16.89187774 -1.02051287 13.94596319 -1 11 C-0.34 11 0.32 11 1 11 C1 9.68 1 8.36 1 7 C0.34 6.67 -0.32 6.34 -1 6 C-0.67 4.02 -0.34 2.04 0 0 Z " fill="#777777" transform="translate(276,278)"/>
<path d="M0 0 C-0.6875 1.9375 -0.6875 1.9375 -2 4 C-4.625 4.75 -4.625 4.75 -7 5 C-7.1546875 6.175625 -7.1546875 6.175625 -7.3125 7.375 C-8 10 -8 10 -11 12 C-11.33 11.34 -11.66 10.68 -12 10 C-13.32 10.33 -14.64 10.66 -16 11 C-16.99 9.68 -17.98 8.36 -19 7 C-16.77675074 5.8206851 -14.54753361 4.65659082 -12.3125 3.5 C-11.68666016 3.16613281 -11.06082031 2.83226562 -10.41601562 2.48828125 C-6.79518683 0.6304738 -4.08595745 -0.43750214 0 0 Z " fill="#D2D2D2" transform="translate(223,357)"/>
<path d="M0 0 C1.04449911 3.13349732 0.93423645 3.98968256 0 7 C-0.66 7 -1.32 7 -2 7 C-2.103125 8.03125 -2.20625 9.0625 -2.3125 10.125 C-2.99127797 13.95083945 -4.11158795 16.63370025 -6 20 C-6.33 20 -6.66 20 -7 20 C-7 18.02 -7 16.04 -7 14 C-7.66 13.67 -8.32 13.34 -9 13 C-7.68 9.37 -6.36 5.74 -5 2 C-3.35 2 -1.7 2 0 2 C0 1.34 0 0.68 0 0 Z " fill="#C6C6C6" transform="translate(158,354)"/>
<path d="M0 0 C0.66 0.33 1.32 0.66 2 1 C1.01 2.485 1.01 2.485 0 4 C0.99 4.33 1.98 4.66 3 5 C2.57074219 5.68449219 2.14148438 6.36898438 1.69921875 7.07421875 C-0.1425575 10.24546108 -1.67021113 13.47446449 -3.1875 16.8125 C-3.98220703 18.55466797 -3.98220703 18.55466797 -4.79296875 20.33203125 C-5.19128906 21.21246094 -5.58960938 22.09289062 -6 23 C-7.125 19.25 -7.125 19.25 -6 17 C-6.66 17 -7.32 17 -8 17 C-6.19389405 10.65660349 -3.74372266 5.43061745 0 0 Z " fill="#505050" transform="translate(191,274)"/>
<path d="M0 0 C0.33 0 0.66 0 1 0 C1.33 15.84 1.66 31.68 2 48 C1.34 47.67 0.68 47.34 0 47 C-1.32192283 41.84802133 -1.04339895 36.71355184 -0.87890625 31.4453125 C-0.85529526 30.54376434 -0.83168427 29.64221619 -0.80735779 28.71334839 C-0.73114276 25.85038837 -0.64693845 22.98772811 -0.5625 20.125 C-0.50923705 18.17709771 -0.45649698 16.22918106 -0.40429688 14.28125 C-0.27558506 9.52064562 -0.13971047 4.76029378 0 0 Z " fill="#424242" transform="translate(273,280)"/>
<path d="M0 0 C4.32751838 1.48257574 7.6002601 3.70019507 11.25 6.4375 C12.83554687 7.61119141 12.83554687 7.61119141 14.453125 8.80859375 C17 11 17 11 18 14 C15.04089954 12.59726615 12.38693812 10.9757693 9.6875 9.125 C5.88084082 6.55361433 2.01872472 4.22312432 -2 2 C-1.34 1.34 -0.68 0.68 0 0 Z " fill="#BEBEBE" transform="translate(315,343)"/>
<path d="M0 0 C-0.66 1.65 -1.32 3.3 -2 5 C-2.66 5 -3.32 5 -4 5 C-4.33 5.99 -4.66 6.98 -5 8 C-5.66 8 -6.32 8 -7 8 C-7 8.66 -7 9.32 -7 10 C-7.66 10 -8.32 10 -9 10 C-9.33 10.99 -9.66 11.98 -10 13 C-10.75 10.875 -10.75 10.875 -11 8 C-9.20132018 4.47182035 -7.90930105 2.47630055 -4.375 0.625 C-2 0 -2 0 0 0 Z " fill="#6D6D6D" transform="translate(223,235)"/>
<path d="M0 0 C2.4490081 3.76474971 2.17067193 7.10389279 2.0625 11.5 C1.85463935 17.33450308 1.85463935 17.33450308 3 23 C2.01 23 1.02 23 0 23 C-0.33 16.73 -0.66 10.46 -1 4 C-1.66 3.67 -2.32 3.34 -3 3 C-2.01 3 -1.02 3 0 3 C0 2.01 0 1.02 0 0 Z " fill="#ACACAC" transform="translate(274,265)"/>
<path d="M0 0 C1.27133789 0.00966797 1.27133789 0.00966797 2.56835938 0.01953125 C3.8899707 0.04466797 3.8899707 0.04466797 5.23828125 0.0703125 C6.57729492 0.08384766 6.57729492 0.08384766 7.94335938 0.09765625 C10.14610439 0.12121502 12.34830713 0.15410921 14.55078125 0.1953125 C14.55078125 0.5253125 14.55078125 0.8553125 14.55078125 1.1953125 C11.91078125 1.1953125 9.27078125 1.1953125 6.55078125 1.1953125 C6.55078125 2.5153125 6.55078125 3.8353125 6.55078125 5.1953125 C5.23078125 5.1953125 3.91078125 5.1953125 2.55078125 5.1953125 C2.55078125 4.5353125 2.55078125 3.8753125 2.55078125 3.1953125 C-0.74921875 2.8653125 -4.04921875 2.5353125 -7.44921875 2.1953125 C-4.2960709 0.09321393 -3.58818794 -0.0481636 0 0 Z " fill="#949494" transform="translate(314.44921875,238.8046875)"/>
<path d="M0 0 C0.33 0 0.66 0 1 0 C2.17700048 4.62459244 2.11408412 9.07866462 2.0625 13.8125 C2.05798828 14.60076172 2.05347656 15.38902344 2.04882812 16.20117188 C2.03711312 18.13414761 2.01917998 20.06708393 2 22 C1.34 22 0.68 22 0 22 C-0.33 22.99 -0.66 23.98 -1 25 C-1 20.38 -1 15.76 -1 11 C-0.34 11 0.32 11 1 11 C1 9.68 1 8.36 1 7 C0.34 6.67 -0.32 6.34 -1 6 C-0.67 4.02 -0.34 2.04 0 0 Z " fill="#6C6C6C" transform="translate(276,278)"/>
<path d="M0 0 C0.99 0 1.98 0 3 0 C3 0.66 3 1.32 3 2 C3.66 2.33 4.32 2.66 5 3 C3.85805571 5.80063432 2.67198768 8.47332213 1 11 C-1.75 12 -1.75 12 -4 12 C-4 10.68 -4 9.36 -4 8 C-3.34 8 -2.68 8 -2 8 C-1.855625 7.236875 -1.71125 6.47375 -1.5625 5.6875 C-1 3 -1 3 0 0 Z " fill="#D4D4D4" transform="translate(183,297)"/>
<path d="M0 0 C0.99 0 1.98 0 3 0 C3 0.66 3 1.32 3 2 C1.2421875 2.9765625 -0.515625 3.953125 -2.2734375 4.9296875 C-4.1612614 6.00897274 -4.1612614 6.00897274 -6 8 C-6.99 8 -7.98 8 -9 8 C-9.33 8.99 -9.66 9.98 -10 11 C-11.65 11 -13.3 11 -15 11 C-10.25 7 -10.25 7 -8 7 C-8.33 5.35 -8.66 3.7 -9 2 C-8.01 2 -7.02 2 -6 2 C-6 2.66 -6 3.32 -6 4 C-2.81765895 2.24545615 -2.81765895 2.24545615 0 0 Z " fill="#7F7F7F" transform="translate(335,316)"/>
<path d="M0 0 C6.26418531 1.48362284 10.91513505 5.24162156 16 9 C15.01 9.66 14.02 10.32 13 11 C8.38 8.03 3.76 5.06 -1 2 C-0.67 1.34 -0.34 0.68 0 0 Z " fill="#DADADA" transform="translate(309,346)"/>
<path d="M0 0 C0.66 0 1.32 0 2 0 C3.00109515 3.31070838 3.10356134 6.30084769 3.0625 9.75 C3.05347656 10.73484375 3.04445313 11.7196875 3.03515625 12.734375 C3.02355469 13.48203125 3.01195312 14.2296875 3 15 C2.34 15 1.68 15 1 15 C1 14.34 1 13.68 1 13 C0.34 13 -0.32 13 -1 13 C-1.0272415 11.58344207 -1.04650467 10.16672955 -1.0625 8.75 C-1.07410156 7.96109375 -1.08570313 7.1721875 -1.09765625 6.359375 C-1.00385306 4.09308998 -0.63241063 2.1711105 0 0 Z " fill="#9B9B9B" transform="translate(342,372)"/>
<path d="M0 0 C0.99 0 1.98 0 3 0 C1.25740319 13.81776765 1.25740319 13.81776765 -2 19 C-3.69193359 15.61613282 -2.24788179 11.96815051 -1.5625 8.375 C-1.41490234 7.57320313 -1.26730469 6.77140625 -1.11523438 5.9453125 C-0.7493493 3.96245145 -0.37542879 1.98107623 0 0 Z " fill="#696969" transform="translate(269,350)"/>
<path d="M0 0 C2.78211944 0.37596209 4.5879284 0.67318459 6.8125 2.4375 C8 4 8 4 8 6 C8.66 6 9.32 6 10 6 C11.625 8.5 11.625 8.5 13 11 C8.75153925 10.52794881 6.73180712 8.11122478 4 5 C4 4.34 4 3.68 4 3 C2.68 2.67 1.36 2.34 0 2 C0 1.34 0 0.68 0 0 Z " fill="#3F3F3F" transform="translate(325,354)"/>
<path d="M0 0 C-0.66 0 -1.32 0 -2 0 C-2.1546875 1.175625 -2.1546875 1.175625 -2.3125 2.375 C-3 5 -3 5 -6 7 C-6.33 6.34 -6.66 5.68 -7 5 C-8.32 5.33 -9.64 5.66 -11 6 C-11.33 5.01 -11.66 4.02 -12 3 C-10.68 3 -9.36 3 -8 3 C-7.67 2.01 -7.34 1.02 -7 0 C-4.05610218 -1.17755913 -3.10046087 -1.03348696 0 0 Z " fill="#B5B5B5" transform="translate(218,362)"/>
<path d="M0 0 C1.32 0.99 2.64 1.98 4 3 C3.625 5.4375 3.625 5.4375 3 8 C2.01 8.495 2.01 8.495 1 9 C1 8.34 1 7.68 1 7 C0.34 7 -0.32 7 -1 7 C-1 7.99 -1 8.98 -1 10 C-1.66 10 -2.32 10 -3 10 C-2.69201674 8.51988629 -2.378482 7.04092675 -2.0625 5.5625 C-1.88847656 4.73878906 -1.71445313 3.91507812 -1.53515625 3.06640625 C-1 1 -1 1 0 0 Z " fill="#555555" transform="translate(172,311)"/>
<path d="M0 0 C0 0.66 0 1.32 0 2 C1.32 2 2.64 2 4 2 C4 1.34 4 0.68 4 0 C4.66 0.33 5.32 0.66 6 1 C5.67 1.99 5.34 2.98 5 4 C3.35 3.67 1.7 3.34 0 3 C-0.33 4.32 -0.66 5.64 -1 7 C-1.99 6.67 -2.98 6.34 -4 6 C-4.33 6.66 -4.66 7.32 -5 8 C-4.67 6.68 -4.34 5.36 -4 4 C-4.99 3.34 -5.98 2.68 -7 2 C-2.25 0 -2.25 0 0 0 Z " fill="#ADADAD" transform="translate(309,329)"/>
<path d="M0 0 C0.66 0 1.32 0 2 0 C2.20140476 3.62528568 1.85776765 5.86501708 0 9 C-1.65 8.67 -3.3 8.34 -5 8 C-4 6 -3 4 -2 2 C-1.34 2.33 -0.68 2.66 0 3 C0 2.01 0 1.02 0 0 Z " fill="#222222" transform="translate(171,318)"/>
<path d="M0 0 C0.99 0 1.98 0 3 0 C2.25 6.625 2.25 6.625 0 10 C-0.66 10 -1.32 10 -2 10 C-2.33 9.01 -2.66 8.02 -3 7 C-2.34 7 -1.68 7 -1 7 C-0.67 4.69 -0.34 2.38 0 0 Z " fill="#2C2C2C" transform="translate(161,340)"/>
<path d="M0 0 C0.66 0 1.32 0 2 0 C1.49202991 4.3177458 0.80317221 8.03302114 -1 12 C-1.66 12 -2.32 12 -3 12 C-2.40075776 7.80530429 -1.42500059 3.99000166 0 0 Z " fill="#626262" transform="translate(155,357)"/>
<path d="M0 0 C0.79921875 0.00902344 1.5984375 0.01804687 2.421875 0.02734375 C3.02515625 0.03894531 3.6284375 0.05054688 4.25 0.0625 C0.18662608 2.77141595 -3.85048391 4.0625 -8.75 4.0625 C-8.75 3.0725 -8.75 2.0825 -8.75 1.0625 C-5.75519083 0.1901588 -3.11424089 -0.04579766 0 0 Z " fill="#959595" transform="translate(292.75,341.9375)"/>
<path d="M0 0 C1.134375 0.020625 2.26875 0.04125 3.4375 0.0625 C2.4475 1.5475 2.4475 1.5475 1.4375 3.0625 C0.1175 3.0625 -1.2025 3.0625 -2.5625 3.0625 C-2.5625 3.7225 -2.5625 4.3825 -2.5625 5.0625 C-3.8825 5.0625 -5.2025 5.0625 -6.5625 5.0625 C-4.14811644 0.07277397 -4.14811644 0.07277397 0 0 Z " fill="#ECECEC" transform="translate(315.5625,325.9375)"/>
<path d="M0 0 C1.32 0 2.64 0 4 0 C4.042721 1.66611905 4.04063832 3.33382885 4 5 C3 6 3 6 -0.5625 6.0625 C-1.696875 6.041875 -2.83125 6.02125 -4 6 C-2.68 5.67 -1.36 5.34 0 5 C0 3.35 0 1.7 0 0 Z " fill="#F5F5F5" transform="translate(321,240)"/>
<path d="M0 0 C3.79303725 1.00193437 6.71536341 1.81024227 10 4 C5.47907032 5.45606519 2.48351204 4.27032841 -2 3 C-1.34 2.67 -0.68 2.34 0 2 C0 1.34 0 0.68 0 0 Z " fill="#ACACAC" transform="translate(337,245)"/>
<path d="M0 0 C0.33 0.66 0.66 1.32 1 2 C1.66 2 2.32 2 3 2 C2.375 3.9375 2.375 3.9375 1 6 C-2.125 6.75 -2.125 6.75 -5 7 C-3.70700306 4.11562221 -2.34058637 2.12780579 0 0 Z " fill="#B7B7B7" transform="translate(223,230)"/>
<path d="M0 0 C0.66 0 1.32 0 2 0 C1.125 7.75 1.125 7.75 0 10 C-0.99 9.67 -1.98 9.34 -3 9 C-3 8.34 -3 7.68 -3 7 C-2.34 7 -1.68 7 -1 7 C-0.67 4.69 -0.34 2.38 0 0 Z " fill="#1D1D1D" transform="translate(166,329)"/>
<path d="M0 0 C0.66 0 1.32 0 2 0 C2 1.65 2 3.3 2 5 C2.66 5.33 3.32 5.66 4 6 C-3.75 5.25 -3.75 5.25 -6 3 C-5.195625 2.87625 -4.39125 2.7525 -3.5625 2.625 C-2.716875 2.41875 -1.87125 2.2125 -1 2 C-0.67 1.34 -0.34 0.68 0 0 Z " fill="#8E8E8E" transform="translate(332,239)"/>
<path d="M0 0 C1 3 1 3 0.0625 5.1875 C-0.4634375 6.0846875 -0.4634375 6.0846875 -1 7 C-1 5.68 -1 4.36 -1 3 C-1.66 3 -2.32 3 -3 3 C-3.33 4.65 -3.66 6.3 -4 8 C-4.99 7.67 -5.98 7.34 -7 7 C-6.34 5.35 -5.68 3.7 -5 2 C-3.35 2 -1.7 2 0 2 C0 1.34 0 0.68 0 0 Z " fill="#B8B8B8" transform="translate(158,354)"/>
<path d="M0 0 C0.99 0.66 1.98 1.32 3 2 C2.34 4.97 1.68 7.94 1 11 C0.01 10.01 -0.98 9.02 -2 8 C-1.79846293 5.15124622 -0.85624823 2.74900747 0 0 Z " fill="#D2D2D2" transform="translate(361,280)"/>
<path d="M0 0 C2 3 2 3 1.625 5.6875 C1.41875 6.450625 1.2125 7.21375 1 8 C-0.65 8 -2.3 8 -4 8 C-2.68 5.36 -1.36 2.72 0 0 Z " fill="#383838" transform="translate(202,255)"/>
<path d="M0 0 C1.98 0 3.96 0 6 0 C6 0.66 6 1.32 6 2 C6.66 2.33 7.32 2.66 8 3 C5.08517222 3.80967438 3.53886783 4.21845993 0.6875 3.0625 C0.130625 2.711875 -0.42625 2.36125 -1 2 C-0.67 1.34 -0.34 0.68 0 0 Z " fill="#565656" transform="translate(344,245)"/>
<path d="M0 0 C1.32 0.66 2.64 1.32 4 2 C4 2.66 4 3.32 4 4 C3.34 4 2.68 4 2 4 C2 4.66 2 5.32 2 6 C1.34 6 0.68 6 0 6 C-0.33 6.99 -0.66 7.98 -1 9 C-1.80967438 6.08517222 -2.21845993 4.53886783 -1.0625 1.6875 C-0.711875 1.130625 -0.36125 0.57375 0 0 Z " fill="#878787" transform="translate(214,239)"/>
<path d="M0 0 C2.9719385 1.12451727 5.33440687 2.22293791 8 4 C7.67 4.66 7.34 5.32 7 6 C2.545 4.02 2.545 4.02 -2 2 C-1.34 1.34 -0.68 0.68 0 0 Z " fill="#CECECE" transform="translate(315,343)"/>
<path d="M0 0 C3.3 0 6.6 0 10 0 C10 0.99 10 1.98 10 3 C6.14354879 3.22036864 3.50776784 2.60355101 0 1 C0 0.67 0 0.34 0 0 Z " fill="#393939" transform="translate(263,338)"/>
<path d="M0 0 C-0.33 0.99 -0.66 1.98 -1 3 C-1.66 3 -2.32 3 -3 3 C-3.33 3.99 -3.66 4.98 -4 6 C-4.66 5.34 -5.32 4.68 -6 4 C-6 2.68 -6 1.36 -6 0 C-2.25 -1.125 -2.25 -1.125 0 0 Z " fill="#595959" transform="translate(209,254)"/>
<path d="M0 0 C0.66 0 1.32 0 2 0 C1.67 2.31 1.34 4.62 1 7 C-0.32 6.67 -1.64 6.34 -3 6 C-3 5.34 -3 4.68 -3 4 C-2.34 4 -1.68 4 -1 4 C-0.67 2.68 -0.34 1.36 0 0 Z " fill="#1E1E1E" transform="translate(176,307)"/>
<path d="M0 0 C0.99 0.33 1.98 0.66 3 1 C2.34 3.64 1.68 6.28 1 9 C0.34 8.67 -0.32 8.34 -1 8 C-1.125 2.25 -1.125 2.25 0 0 Z " fill="#232323" transform="translate(182,290)"/>
<path d="M0 0 C-1 3 -1 3 -4 5 C-4.99 5 -5.98 5 -7 5 C-7 3.68 -7 2.36 -7 1 C-4.50935112 0.31292445 -2.62113708 0 0 0 Z " fill="#C9C9C9" transform="translate(332,239)"/>
<path d="M0 0 C1.85776765 3.13498292 2.20140476 5.37471432 2 9 C-1 7 -1 7 -1.6875 4.375 C-1.790625 3.59125 -1.89375 2.8075 -2 2 C-1.34 2 -0.68 2 0 2 C0 1.34 0 0.68 0 0 Z " fill="#CFCFCF" transform="translate(340,374)"/>
<path d="M0 0 C0.66 0 1.32 0 2 0 C1.39009109 3.55780196 0.4216319 6.6828589 -1 10 C-2.46726798 6.18510326 -1.43336419 3.70988378 0 0 Z " fill="#404040" transform="translate(186,287)"/>
<path d="M0 0 C0.94875 0.350625 1.8975 0.70125 2.875 1.0625 C2.875 1.7225 2.875 2.3825 2.875 3.0625 C-2.875 2.3125 -2.875 2.3125 -5.125 0.0625 C-3.125 -0.9375 -3.125 -0.9375 0 0 Z " fill="#E3E3E3" transform="translate(312.125,340.9375)"/>
<path d="M0 0 C0.66 0 1.32 0 2 0 C2 0.66 2 1.32 2 2 C3.32 2 4.64 2 6 2 C6 1.34 6 0.68 6 0 C6.66 0.33 7.32 0.66 8 1 C7.67 1.99 7.34 2.98 7 4 C4.36 3.67 1.72 3.34 -1 3 C-0.67 2.01 -0.34 1.02 0 0 Z " fill="#C1C1C1" transform="translate(307,329)"/>
<path d="M0 0 C0.66 0 1.32 0 2 0 C2 2.64 2 5.28 2 8 C1.34 7.67 0.68 7.34 0 7 C-0.6875 4 -0.6875 4 -1 1 C-0.67 0.67 -0.34 0.34 0 0 Z " fill="#5D5D5D" transform="translate(273,320)"/>
<path d="M0 0 C1.32 0.66 2.64 1.32 4 2 C3.34 3.32 2.68 4.64 2 6 C1.01 5.01 0.02 4.02 -1 3 C-0.67 2.01 -0.34 1.02 0 0 Z " fill="#414141" transform="translate(334,239)"/>
<path d="M0 0 C0.99 0.33 1.98 0.66 3 1 C3 1.99 3 2.98 3 4 C1.35 4.33 -0.3 4.66 -2 5 C-1.34 3.35 -0.68 1.7 0 0 Z " fill="#D7D7D7" transform="translate(324,319)"/>
<path d="M0 0 C0 1.65 0 3.3 0 5 C-1.32 5.33 -2.64 5.66 -4 6 C-4 4.68 -4 3.36 -4 2 C-1 0 -1 0 0 0 Z " fill="#222222" transform="translate(195,272)"/>
<path d="M0 0 C0.33 1.32 0.66 2.64 1 4 C0.34 4 -0.32 4 -1 4 C-1.33 4.99 -1.66 5.98 -2 7 C-2.99 6.34 -3.98 5.68 -5 5 C-5 4.34 -5 3.68 -5 3 C-3.35 3 -1.7 3 0 3 C0 2.01 0 1.02 0 0 Z " fill="#7B7B7B" transform="translate(203,260)"/>
<path d="M0 0 C0.33 1.32 0.66 2.64 1 4 C0.01 4.66 -0.98 5.32 -2 6 C-2 5.34 -2 4.68 -2 4 C-2.66 4 -3.32 4 -4 4 C-4 3.34 -4 2.68 -4 2 C-2.68 1.34 -1.36 0.68 0 0 Z " fill="#464646" transform="translate(212,245)"/>
</svg>
